<svg version="1.1" id="Layer_1" xmlns="http://www.w3.org/2000/svg" xmlns:xlink="http://www.w3.org/1999/xlink" x="0px" y="0px"
	 width="100%" viewBox="0 0 512 512" enable-background="new 0 0 512 512" xml:space="preserve">
<path fill="#000000" opacity="1.000000" stroke="none" 
	d="
M1.000000,161.449982 
	C15.885207,163.237183 30.852299,163.215759 45.800617,162.159454 
	C68.406898,160.561996 91.001038,158.526169 112.928841,166.665512 
	C119.202461,168.994232 125.068367,171.986252 130.222809,176.418716 
	C145.069839,189.186111 144.856140,212.783310 135.121521,227.639221 
	C126.492928,240.807266 114.046021,248.607346 98.870636,252.314240 
	C96.509544,252.890961 93.890633,252.825363 91.944740,254.526947 
	C91.486420,256.562836 92.901428,257.760010 93.710068,259.131165 
	C108.274551,283.827393 124.485535,307.443268 140.856308,330.956085 
	C146.957123,339.718475 154.359085,346.111755 165.838394,345.775146 
	C167.366669,345.730316 169.000519,346.170380 169.346390,347.952057 
	C169.760056,350.083008 168.079117,350.872528 166.458618,351.371094 
	C164.560440,351.955109 162.613708,352.551392 160.650925,352.726624 
	C150.696472,353.615448 140.731567,353.951904 130.785568,352.564026 
	C123.717987,351.577789 118.470779,347.784576 114.668243,341.891937 
	C103.015274,323.833801 92.435760,305.141602 81.979599,286.378021 
	C77.035515,277.505859 72.050117,268.655243 67.240540,259.710419 
	C65.801117,257.033386 64.037308,255.809570 60.918060,256.025513 
	C56.437050,256.335724 51.928566,256.331757 47.432465,256.312195 
	C44.458698,256.299255 43.318394,257.586670 43.325241,260.552124 
	C43.384083,286.037689 43.320194,311.523560 43.390907,337.009064 
	C43.405357,342.217773 46.738518,344.648438 53.518127,344.574341 
	C56.839870,344.538055 60.156395,344.119507 63.477585,343.910645 
	C66.854233,343.698273 69.100502,345.067902 69.038216,348.669861 
	C68.975372,352.304260 66.115746,352.830078 63.354607,352.809570 
	C55.531399,352.751495 47.710270,352.425690 39.887020,352.359772 
	C27.229631,352.253143 14.571206,352.269836 1.456609,352.117188 
	C1.000000,349.629425 1.000000,347.258881 1.361522,344.580780 
	C2.874653,344.396881 4.054133,344.746582 5.173497,344.608612 
	C14.619043,343.444061 15.822932,342.691345 15.887449,333.913605 
	C15.932745,327.750977 15.985568,321.588379 15.999872,315.425659 
	C16.063660,287.942627 15.851455,260.462708 16.420986,232.976547 
	C16.807041,214.345154 17.393818,195.678314 15.830214,177.041901 
	C15.516644,173.304504 14.123994,170.859360 10.428074,170.485748 
	C7.311960,170.170746 4.178719,169.365372 1.000000,170.000000 
	C1.000000,167.299988 1.000000,164.599976 1.000000,161.449982 
M43.350388,191.502136 
	C43.350460,208.650085 43.416439,225.798492 43.294731,242.945572 
	C43.270531,246.355118 44.202244,248.459290 47.850349,248.610703 
	C60.692768,249.143707 73.461670,248.953735 85.821114,244.725327 
	C97.457130,240.744431 106.702171,233.960449 110.150642,221.665741 
	C113.075356,211.238358 112.641380,200.600113 109.455284,190.167786 
	C107.401337,183.442490 103.151062,178.425385 96.979256,175.248917 
	C81.563705,167.314911 65.146584,168.236435 48.690556,170.320770 
	C44.779922,170.816086 43.224148,173.622192 43.328728,177.518585 
	C43.444820,181.844025 43.352463,186.175064 43.350388,191.502136 
z"/>
<path fill="#000000" opacity="1.000000" stroke="none" 
	d="
M513.000000,323.531342 
	C501.643219,342.463043 484.214996,350.127045 463.465332,352.443726 
	C442.971283,354.731842 422.545288,352.335449 402.092133,352.201111 
	C388.592041,352.112457 375.147614,352.877106 361.682800,353.411896 
	C358.786469,353.526917 356.180359,353.276764 356.063446,349.522369 
	C355.944977,345.717834 358.322693,344.763611 361.594788,344.790009 
	C364.591919,344.814178 367.597443,344.807648 370.586700,344.617279 
	C378.985260,344.082520 382.310303,340.877472 382.596313,332.441528 
	C382.867065,324.456055 382.693146,316.455048 382.692352,308.460876 
	C382.688293,268.149750 382.690155,227.838608 382.659851,187.527496 
	C382.651001,175.759598 379.732117,172.690170 368.131348,172.136505 
	C365.639984,172.017593 363.137909,172.122681 360.640747,172.126755 
	C357.286743,172.132248 355.808350,170.292191 355.808289,167.108994 
	C355.808228,163.830185 357.837555,162.783997 360.736786,162.908737 
	C365.723877,163.123337 370.705780,163.533325 375.694305,163.629395 
	C396.685822,164.033691 417.596039,162.519699 438.506256,160.919159 
	C451.200073,159.947510 463.817261,160.664871 476.087006,164.297043 
	C490.767090,168.642700 501.602844,177.121521 505.116394,192.860672 
	C508.846344,209.569153 503.803497,223.310608 490.991089,234.482162 
	C484.696899,239.970245 477.342377,243.756363 469.083740,248.349731 
	C486.121521,252.721771 501.786316,257.701660 512.739136,271.795288 
	C513.000000,289.020905 513.000000,306.041779 513.000000,323.531342 
M483.712616,326.183746 
	C491.054993,314.155304 491.408966,301.130890 489.768829,287.601318 
	C487.390137,267.979401 476.386688,257.606018 456.727173,256.133728 
	C442.554657,255.072388 428.449432,255.656418 414.304230,256.018311 
	C410.291565,256.120972 409.263916,257.634186 409.284058,261.413086 
	C409.414551,285.899750 409.328888,310.387451 409.365692,334.874756 
	C409.376556,342.093475 412.318726,345.404541 419.559021,345.591766 
	C429.863617,345.858215 440.193604,346.290863 450.459808,344.662964 
	C463.540466,342.588715 475.128723,337.838165 483.712616,326.183746 
M462.371155,176.079269 
	C461.936554,175.834747 461.517181,175.556824 461.065155,175.350510 
	C445.199310,168.109726 428.540222,170.195923 411.979279,171.215042 
	C409.458557,171.370148 409.356506,173.317444 409.356689,175.240036 
	C409.358795,198.031616 409.389893,220.823303 409.316711,243.614655 
	C409.307037,246.627151 410.442108,247.758148 413.427917,247.727798 
	C423.726929,247.623138 434.059448,248.324188 444.289185,246.620010 
	C453.306305,245.117844 461.687561,242.417755 467.620667,234.658035 
	C473.916687,226.423752 477.458527,217.087173 477.363617,206.922867 
	C477.250793,194.838318 474.832703,183.274124 462.371155,176.079269 
z"/>
<path fill="#000000" opacity="1.000000" stroke="none" 
	d="
M471.468658,513.000000 
	C474.971252,511.487762 479.050415,510.207825 482.894806,508.422363 
	C497.915588,501.446045 507.384613,489.777710 511.617859,473.802124 
	C511.824280,473.023132 512.183655,472.284668 512.735962,471.263672 
	C513.000000,484.926666 513.000000,498.853363 513.000000,513.000000 
	C499.313232,513.000000 485.625275,513.000000 471.468658,513.000000 
z"/>
<path fill="#000000" opacity="1.000000" stroke="none" 
	d="
M1.000000,471.468658 
	C2.589829,475.112549 3.887113,479.368591 5.821615,483.312042 
	C13.059726,498.066772 24.508801,507.797333 40.642555,511.726440 
	C41.267265,511.878571 41.844540,512.225525 42.721962,512.740845 
	C29.073322,513.000000 15.146646,513.000000 1.000000,513.000000 
	C1.000000,499.313232 1.000000,485.625275 1.000000,471.468658 
z"/>
<path fill="#000000" opacity="1.000000" stroke="none" 
	d="
M513.000000,42.531342 
	C510.562775,39.373646 510.363861,34.923584 508.497101,31.042053 
	C501.022125,15.499557 488.753082,6.029675 472.126709,1.357578 
	C485.594208,1.000000 499.188446,1.000000 513.000000,1.000000 
	C513.000000,14.686794 513.000000,28.374739 513.000000,42.531342 
z"/>
<path fill="#000000" opacity="1.000000" stroke="none" 
	d="
M42.531342,1.000000 
	C39.009903,2.470665 34.872524,3.634445 31.055748,5.466241 
	C16.202484,12.594812 6.445099,24.055323 2.346531,40.148804 
	C2.147115,40.931835 1.793487,41.675594 1.255835,42.718819 
	C1.000000,29.073322 1.000000,15.146646 1.000000,1.000000 
	C14.686776,1.000000 28.374729,1.000000 42.531342,1.000000 
z"/>
<path fill="#000000" opacity="1.000000" stroke="none" 
	d="
M345.950562,197.281677 
	C346.091705,201.416977 346.239075,205.078369 346.327301,208.741180 
	C346.393066,211.471329 346.496704,214.537689 342.786652,214.747681 
	C339.522858,214.932404 339.087250,212.249329 338.563293,209.637024 
	C336.832916,201.010040 335.377380,192.333649 332.093079,184.058197 
	C328.858307,175.907547 323.439026,171.664673 314.485077,171.089661 
	C303.501373,170.384338 292.542236,169.630585 281.620270,171.195602 
	C274.496918,172.216309 272.315948,175.037033 272.365326,182.383896 
	C272.548798,209.697235 272.881775,237.009537 273.063354,264.322876 
	C273.219513,287.809845 273.239441,311.297699 273.333557,334.785095 
	C273.359711,341.317963 275.329376,343.739746 281.960754,344.565399 
	C285.740906,345.036011 289.605164,344.835571 293.431763,344.927002 
	C296.236969,344.993988 298.281860,345.771118 298.333008,349.172241 
	C298.385345,352.652924 296.383240,353.376251 293.508728,353.288177 
	C283.523102,352.982178 273.535797,352.425354 263.551208,352.467651 
	C250.404312,352.523315 237.259750,353.070282 224.113297,353.366791 
	C222.151611,353.411011 219.993912,353.699707 219.023148,351.252502 
	C217.868958,348.342804 219.680237,345.714691 223.253906,345.698639 
	C228.288635,345.676025 233.192352,345.077606 238.028091,343.697021 
	C241.865829,342.601318 243.749466,340.392731 243.804169,336.156097 
	C244.236374,302.682709 245.321609,269.205414 244.466858,235.735825 
	C244.003250,217.581955 244.056305,199.432159 243.739914,181.282639 
	C243.623215,174.587784 241.529816,171.424164 234.888138,170.926102 
	C222.289749,169.981354 209.613464,169.496231 197.034439,171.377365 
	C191.166092,172.254959 187.804871,176.426025 185.651672,181.565796 
	C182.352982,189.439850 181.267868,197.906448 179.386612,206.157959 
	C178.980286,207.940155 178.629211,209.739059 178.126053,211.493973 
	C177.505386,213.658798 176.020218,215.016327 173.727051,214.734009 
	C171.246735,214.428650 170.602081,212.454834 170.708893,210.287308 
	C171.085495,202.645035 171.241013,194.974991 172.050446,187.376205 
	C172.706665,181.215652 172.479843,175.068542 172.757019,168.920319 
	C173.077652,161.807999 174.129044,161.034485 181.141373,161.508041 
	C193.761902,162.360321 206.394669,162.859985 219.057236,162.794922 
	C248.541092,162.643402 278.026306,162.761993 307.510132,162.606430 
	C317.328308,162.554611 327.141937,161.904282 336.961273,161.713089 
	C343.006439,161.595367 343.584717,162.637283 344.474945,168.403305 
	C345.932770,177.845306 344.584900,187.389130 345.950562,197.281677 
z"/>
</svg>